# Blender 4.2.2 LTS
# www.blender.org
mtllib green_slime_Fixed.mtl
o green_slime
v 7.665932 26.317869 -12.637647
v 10.165793 18.016718 -16.080326
v 10.418641 4.809538 -13.328555
v 10.418641 4.809540 12.433938
v 10.165793 18.016741 15.189392
v 7.665932 26.317871 11.743026
v -9.428516 26.317869 -12.637647
v -11.928394 18.016718 -16.080326
v -12.181240 4.809538 -13.328555
v -12.181240 4.809540 12.433938
v -11.928394 18.016741 15.189392
v -9.428516 26.317871 11.743026
v -0.881290 26.659449 14.084289
v -0.881302 18.519163 17.858704
v -0.881302 3.763481 15.543794
v -0.881302 3.763479 -16.438410
v -0.881302 18.519159 -18.749573
v -0.881290 26.659445 -14.978909
v -4.244152 38.495724 -0.447313
v -4.590034 37.674915 2.954756
v -4.589771 37.675182 -3.848902
v -19.531689 17.504631 8.675835
v -22.569351 17.311611 -0.447243
v -18.701759 25.193623 -0.447312
v -15.623112 25.570930 7.441855
v 20.806761 17.311611 -0.447243
v 17.769104 17.504631 8.675835
v 16.939178 25.193623 -0.447312
v 13.860505 25.570930 7.441855
v -15.623112 25.570930 -8.336480
v 13.860505 25.570930 -8.336480
v -19.531689 17.504631 -9.570389
v -20.942455 5.035899 -0.447311
v -19.241779 5.154345 -8.114707
v 17.769104 17.504631 -9.570389
v 19.179836 5.035899 -0.447311
v 17.479145 5.154345 -8.114707
v 17.479145 5.154346 7.220086
v -19.241779 5.154346 7.220086
v -16.793083 2.286282 -4.109511
v -17.051800 2.346366 -0.447310
v 15.030511 2.286282 -4.109511
v 15.289218 2.346366 -0.447310
v -12.024963 1.473921 -7.597381
v -11.642750 0.388741 -0.447310
v 15.030511 2.286283 3.214890
v -16.793083 2.286283 3.214890
v -12.024963 1.473922 6.702760
v 2.827187 37.675182 2.954275
v 2.481571 38.495724 -0.447313
v 2.827454 37.674915 -3.849382
v 10.262328 1.473921 -7.597381
v 9.880193 0.388741 -0.447310
v 10.262328 1.473922 6.702760
v -0.881290 37.619808 -0.447313
v -0.881290 36.146343 3.618842
v -0.881290 36.146343 -4.513468
v -0.881290 -1.316073 -0.447310
v -0.881302 0.263802 -9.739188
v -0.881302 0.263803 8.844567
v 10.847379 9.660082 -16.787958
v -0.881302 10.512593 -20.072416
v -12.609978 9.660082 -16.787958
v -20.704334 8.856901 -10.113110
v -23.999134 8.253909 -0.481712
v -20.704334 8.856903 9.149689
v -12.609978 9.660084 15.841942
v -0.881302 10.512597 19.400187
v 10.847379 9.660084 15.841942
v 18.941759 8.856903 9.149689
v 22.236549 8.253909 -0.481712
v 18.941759 8.856901 -10.113110
v -13.250935 32.559139 -0.447313
v -11.610455 32.635010 4.209074
v -6.882042 32.710842 6.906851
v -0.881290 32.926659 8.367102
v 5.119244 32.711151 6.906508
v 9.847829 32.635010 4.209074
v 11.488395 32.559139 -0.447313
v 9.847829 32.635010 -5.103693
v 5.119450 32.710842 -7.801469
v -0.881290 32.926659 -9.261721
v -6.881828 32.711151 -7.801134
v -11.610455 32.635010 -5.103693
v -8.267483 37.337208 1.978659
v -6.050690 38.038120 2.214285
v -8.803387 38.083790 -0.447313
v -6.650852 38.885929 -0.447313
v -6.050781 38.038319 -3.108568
v -8.267475 37.337208 -2.873285
v 7.040813 38.083805 -0.447313
v 4.888275 38.885929 -0.447313
v 4.288181 38.038319 2.213949
v 6.504875 37.337208 1.978659
v 6.504883 37.337208 -2.873285
v 4.288078 38.038120 -3.108911
v -5.352909 36.022671 4.270163
v -0.881290 35.160641 5.072538
v 3.619576 35.959057 4.320608
v -5.180710 36.395367 -4.867861
v -0.881290 35.210705 -5.893312
v 3.483517 36.254002 -4.980623
vn -0.0000 0.2804 -0.9599
vn -0.0000 0.5250 -0.8511
vn 0.3733 0.5139 -0.7724
vn 0.4372 0.2718 -0.8573
vn 0.4296 -0.1481 -0.8908
vn -0.0000 -0.1531 -0.9882
vn 0.4399 0.2732 0.8555
vn -0.0000 0.2854 0.9584
vn -0.0000 -0.1518 0.9884
vn 0.4353 -0.1495 0.8878
vn -0.0000 0.5252 0.8510
vn 0.3733 0.5140 0.7723
vn -0.3733 0.5140 0.7723
vn -0.4399 0.2732 0.8555
vn -0.4353 -0.1496 0.8878
vn -0.4297 -0.1481 -0.8908
vn -0.4372 0.2718 -0.8573
vn -0.3733 0.5139 -0.7724
vn 0.2527 0.9675 -0.0000
vn 0.1337 0.8681 0.4780
vn 0.0007 0.8611 0.5085
vn -0.0000 1.0000 -0.0000
vn 0.1512 0.8773 -0.4556
vn 0.0002 0.8728 -0.4881
vn -0.7991 0.2784 0.5328
vn -0.9567 0.2911 0.0004
vn -0.9975 -0.0710 -0.0010
vn -0.8159 -0.0932 0.5706
vn -0.6979 0.5057 0.5072
vn -0.8623 0.5064 -0.0000
vn 0.9567 0.2912 0.0004
vn 0.7991 0.2784 0.5328
vn 0.8159 -0.0932 0.5706
vn 0.9975 -0.0710 -0.0004
vn 0.8623 0.5064 -0.0000
vn 0.6979 0.5056 0.5072
vn -0.6979 0.5056 -0.5072
vn -0.7989 0.2805 -0.5320
vn 0.6979 0.5056 -0.5072
vn 0.7989 0.2805 -0.5320
vn -0.8149 -0.0930 -0.5720
vn -0.7421 -0.6703 0.0007
vn -0.5902 -0.6800 -0.4350
vn -0.4350 -0.8746 -0.2140
vn -0.4591 -0.8884 -0.0000
vn 0.8149 -0.0930 -0.5720
vn 0.5902 -0.6800 -0.4350
vn 0.7421 -0.6703 0.0007
vn 0.4591 -0.8884 -0.0000
vn 0.4350 -0.8746 -0.2140
vn 0.5918 -0.6773 0.4370
vn 0.4350 -0.8746 0.2140
vn -0.5918 -0.6773 0.4370
vn -0.4350 -0.8746 0.2140
vn -0.2288 -0.9228 -0.3100
vn -0.1789 -0.9839 -0.0000
vn 0.1789 -0.9839 -0.0000
vn 0.2288 -0.9228 -0.3100
vn -0.0000 -0.9450 -0.3270
vn -0.0000 -1.0000 -0.0000
vn 0.2288 -0.9228 0.3100
vn -0.2288 -0.9228 0.3100
vn -0.0000 -0.9450 0.3270
vn -0.1310 0.8666 0.4814
vn -0.2527 0.9675 -0.0000
vn -0.1445 0.8738 -0.4642
vn -0.3100 -0.7003 -0.6430
vn -0.3126 -0.7005 0.6415
vn -0.5514 0.6836 0.4782
vn -0.2029 0.6904 0.6944
vn -0.1232 0.8702 0.4770
vn 0.6241 0.6195 -0.4761
vn 0.3026 0.6514 -0.6958
vn 0.2002 0.6907 -0.6948
vn 0.5478 0.6833 -0.4827
vn 0.3100 -0.7003 -0.6430
vn 0.3126 -0.7005 0.6415
vn 0.2036 0.6904 0.6942
vn 0.5523 0.6837 0.4771
vn 0.1248 0.8684 0.4799
vn -0.0000 0.6841 -0.7294
vn -0.0011 0.7361 -0.6769
vn -0.0000 -0.7131 -0.7010
vn -0.0000 -0.7165 0.6975
vn -0.0005 0.7366 0.6763
vn -0.3019 0.6515 -0.6960
vn -0.1987 0.6909 -0.6951
vn -0.6250 0.6192 0.4754
vn -0.7963 0.6049 -0.0000
vn -0.3042 0.6511 0.6954
vn -0.0000 0.6844 0.7291
vn 0.3045 0.6511 0.6953
vn 0.6253 0.6191 0.4751
vn 0.7963 0.6049 -0.0000
vn -0.6236 0.6197 -0.4766
vn -0.5454 0.6831 -0.4857
vn -0.1326 0.9912 -0.0000
vn -0.6610 0.6866 0.3028
vn -0.6610 0.6866 -0.3028
vn -0.1135 0.8814 -0.4584
vn 0.6610 0.6866 0.3028
vn 0.1326 0.9912 -0.0000
vn 0.6610 0.6866 -0.3028
vn 0.1173 0.8771 -0.4658
vt 0.235855 0.378474
vt 0.304746 0.412532
vt 0.280515 0.506633
vt 0.201329 0.517509
vt 0.126869 0.525867
vt 0.171483 0.346585
vt 0.576305 0.702656
vt 0.665373 0.590322
vt 0.729941 0.622105
vt 0.615082 0.767038
vt 0.596564 0.556455
vt 0.536706 0.633091
vt 0.620876 0.462319
vt 0.700200 0.451265
vt 0.774888 0.442752
vt 0.286622 0.202204
vt 0.325209 0.266497
vt 0.364672 0.336037
vt 0.463133 0.459276
vt 0.491950 0.469689
vt 0.489305 0.503616
vt 0.450680 0.484578
vt 0.437268 0.442763
vt 0.412067 0.465526
vt 0.662384 0.330063
vt 0.569075 0.244875
vt 0.600613 0.179629
vt 0.724085 0.287547
vt 0.604476 0.379688
vt 0.537269 0.309185
vt 0.332628 0.724286
vt 0.457155 0.746602
vt 0.460912 0.821319
vt 0.300023 0.788966
vt 0.364291 0.660004
vt 0.461153 0.670456
vt 0.440339 0.298788
vt 0.444600 0.222761
vt 0.297021 0.589363
vt 0.239284 0.638916
vt 0.440053 0.147918
vt 0.615292 0.151506
vt 0.451663 0.112671
vt 0.506097 0.076208
vt 0.632008 0.117645
vt 0.177112 0.680749
vt 0.156196 0.711375
vt 0.286642 0.817706
vt 0.269957 0.851546
vt 0.160360 0.776740
vt 0.450271 0.856378
vt 0.395982 0.892906
vt 0.745458 0.257731
vt 0.741407 0.192391
vt 0.050328 0.865057
vt 0.056245 0.840651
vt 0.092686 0.822195
vt 0.088552 0.871264
vt 0.273072 0.875858
vt 0.270962 0.900882
vt 0.232738 0.894676
vt 0.244342 0.846820
vt 0.170810 0.820366
vt 0.160645 0.882970
vt 0.265045 0.925289
vt 0.228604 0.943745
vt 0.048218 0.890082
vt 0.076948 0.919120
vt 0.150480 0.945573
vt 0.463996 0.526383
vt 0.438207 0.509874
vt 0.409378 0.499416
vt 0.275030 0.150543
vt 0.302097 0.074829
vt 0.822775 0.420897
vt 0.866474 0.353420
vt 0.500047 0.437203
vt 0.511401 0.469680
vt 0.491035 0.455613
vt 0.360597 0.556549
vt 0.350976 0.502051
vt 0.392567 0.499298
vt 0.401275 0.531887
vt 0.035143 0.615485
vt 0.078815 0.548035
vt 0.626925 0.818290
vt 0.600067 0.894013
vt 0.476243 0.542422
vt 0.443170 0.552616
vt 0.452287 0.534247
vt 0.368488 0.444009
vt 0.398351 0.458772
vt 0.035153 0.279209
vt 0.110047 0.316260
vt 0.791869 0.652582
vt 0.866827 0.689456
vt 0.503614 0.510690
vt 0.403885 0.394782
vt 0.427882 0.430815
vt 0.540789 0.412574
vt 0.504959 0.374534
vt 0.550361 0.467041
vt 0.532842 0.525074
vt 0.497492 0.574322
vt 0.448448 0.599915
vt 0.396455 0.594633
vt 0.452955 0.369252
vt 0.458105 0.416577
vt 0.471860 0.441554
vt 0.479688 0.425649
vt 0.449036 0.434956
vt 0.421611 0.543486
vt 0.429470 0.527588
vt 0.410323 0.513498
s 1
usemtl initialShadingGroup
f 17/1/1 18/2/2 1/3/3 2/4/4
f 61/5/5 62/6/6 17/1/1 2/4/4
f 5/7/7 14/8/8 68/9/9 69/10/10
f 13/11/11 14/8/8 5/7/7 6/12/12
f 12/13/13 11/14/14 14/8/8 13/11/11
f 67/15/15 68/9/9 14/8/8 11/14/14
f 62/6/6 63/16/16 8/17/17 17/1/1
f 8/17/17 7/18/18 18/2/2 17/1/1
f 19/19/19 20/20/20 56/21/21 55/22/22
f 21/23/23 19/19/19 55/22/22 57/24/24
f 22/25/25 23/26/26 65/27/27 66/28/28
f 23/26/26 22/25/25 25/29/29 24/30/30
f 26/31/31 27/32/32 70/33/33 71/34/34
f 27/32/32 26/31/31 28/35/35 29/36/36
f 24/30/30 30/37/37 32/38/38 23/26/26
f 31/39/39 28/35/35 26/31/31 35/40/40
f 23/26/26 32/38/38 64/41/41 65/27/27
f 33/42/42 34/43/43 40/44/44 41/45/45
f 35/40/40 26/31/31 71/34/34 72/46/46
f 37/47/47 36/48/48 43/49/49 42/50/50
f 36/48/48 38/51/51 46/52/52 43/49/49
f 39/53/53 33/42/42 41/45/45 47/54/54
f 41/55/45 40/56/44 44/57/55 45/58/56
f 42/59/50 43/60/49 53/61/57 52/62/58
f 45/58/56 44/57/55 59/63/59 58/64/60
f 43/60/49 46/65/52 54/66/61 53/61/57
f 47/67/54 41/55/45 45/58/56 48/68/62
f 48/68/62 45/58/56 58/64/60 60/69/63
f 49/70/64 50/71/65 55/22/22 56/21/21
f 50/71/65 51/72/66 57/24/24 55/22/22
f 52/62/58 53/61/57 58/64/60 59/63/59
f 53/61/57 54/66/61 60/69/63 58/64/60
f 22/25/25 11/14/14 12/13/13 25/29/29
f 30/37/37 7/18/18 8/17/17 32/38/38
f 32/38/38 8/17/17 63/16/16 64/41/41
f 11/14/14 22/25/25 66/28/28 67/15/15
f 34/43/43 9/73/67 44/74/55 40/44/44
f 10/75/68 39/53/53 47/54/54 48/76/62
f 85/77/69 97/78/70 20/20/20 86/79/71
f 80/80/72 81/81/73 102/82/74 95/83/75
f 2/4/4 1/3/3 31/39/39 35/40/40
f 72/46/46 61/5/5 2/4/4 35/40/40
f 52/84/58 3/85/76 37/47/47 42/50/50
f 38/51/51 4/86/77 54/87/61 46/52/52
f 27/32/32 5/7/7 69/10/10 70/33/33
f 6/12/12 5/7/7 27/32/32 29/36/36
f 49/70/64 99/88/78 94/89/79 93/90/80
f 81/81/73 82/91/81 101/92/82 102/82/74
f 59/93/59 16/94/83 3/85/76 52/84/58
f 4/86/77 15/95/84 60/96/63 54/87/61
f 56/21/21 98/97/85 99/88/78 49/70/64
f 60/96/63 15/95/84 10/75/68 48/76/62
f 44/74/55 9/73/67 16/94/83 59/93/59
f 82/91/81 83/98/86 100/99/87 101/92/82
f 20/20/20 97/78/70 98/97/85 56/21/21
f 16/94/83 62/6/6 61/5/5 3/85/76
f 9/73/67 63/16/16 62/6/6 16/94/83
f 64/41/41 63/16/16 9/73/67 34/43/43
f 65/27/27 64/41/41 34/43/43 33/42/42
f 66/28/28 65/27/27 33/42/42 39/53/53
f 67/15/15 66/28/28 39/53/53 10/75/68
f 15/95/84 68/9/9 67/15/15 10/75/68
f 69/10/10 68/9/9 15/95/84 4/86/77
f 70/33/33 69/10/10 4/86/77 38/51/51
f 71/34/34 70/33/33 38/51/51 36/48/48
f 72/46/46 71/34/34 36/48/48 37/47/47
f 3/85/76 61/5/5 72/46/46 37/47/47
f 74/100/88 73/101/89 24/30/30 25/29/29
f 25/29/29 12/13/13 75/102/90 74/100/88
f 76/103/91 75/102/90 12/13/13 13/11/11
f 77/104/92 76/103/91 13/11/11 6/12/12
f 78/105/93 77/104/92 6/12/12 29/36/36
f 29/36/36 28/35/35 79/106/94 78/105/93
f 80/80/72 79/106/94 28/35/35 31/39/39
f 1/3/3 81/81/73 80/80/72 31/39/39
f 18/2/2 82/91/81 81/81/73 1/3/3
f 7/18/18 83/98/86 82/91/81 18/2/2
f 84/107/95 83/98/86 7/18/18 30/37/37
f 73/101/89 84/107/95 30/37/37 24/30/30
f 90/108/96 100/99/87 83/98/86 84/107/95
f 85/77/69 86/79/71 88/109/97 87/110/98
f 87/110/99 88/109/97 89/111/100 90/108/96
f 91/112/101 92/113/102 93/90/80 94/89/79
f 92/113/102 91/112/103 95/83/75 96/114/104
f 85/77/69 87/110/98 73/101/89 74/100/88
f 88/109/97 86/79/71 20/20/20 19/19/19
f 87/110/99 90/108/96 84/107/95 73/101/89
f 89/111/100 88/109/97 19/19/19 21/23/23
f 78/105/93 79/106/94 91/112/101 94/89/79
f 92/113/102 96/114/104 51/72/66 50/71/65
f 95/83/75 91/112/103 79/106/94 80/80/72
f 93/90/80 92/113/102 50/71/65 49/70/64
f 74/100/88 75/102/90 97/78/70 85/77/69
f 98/97/85 97/78/70 75/102/90 76/103/91
f 99/88/78 98/97/85 76/103/91 77/104/92
f 94/89/79 99/88/78 77/104/92 78/105/93
f 90/108/96 89/111/100 21/23/23 100/99/87
f 101/92/82 100/99/87 21/23/23 57/24/24
f 102/82/74 101/92/82 57/24/24 51/72/66
f 95/83/75 102/82/74 51/72/66 96/114/104
