# Blender 4.2.2 LTS
# www.blender.org
mtllib fertilizer_v01_Fixed.mtl
o fertilizer_v01
v -0.116297 -24.326820 0.093179
v -0.116297 -23.034073 -5.054052
v -0.116297 -17.335129 -8.100852
v -0.116297 -10.765271 -8.531302
v -0.116297 -2.938458 -7.890800
v -0.116297 13.795601 -3.108453
v -0.116297 18.064013 -3.389856
v -0.116297 18.406898 -2.925791
v -0.116297 18.445826 -2.478662
v -0.116297 18.867517 -3.193979
v -0.116297 22.918070 -2.774851
v -0.116297 23.736219 -0.954203
v -0.116297 22.717609 0.093176
v -0.116297 -23.034073 6.327036
v -0.116297 -17.335129 8.287194
v -0.116297 -10.765269 8.717629
v -0.116297 -2.938457 8.077156
v -0.116297 13.795601 3.293860
v -0.116297 18.064013 3.576208
v -0.116297 18.406898 3.112128
v -0.116297 18.445826 2.665030
v -0.116297 18.867517 3.380331
v -0.116297 22.918070 2.961218
v -0.116297 23.736219 1.140539
v 20.705925 -17.516426 -6.216361
v 18.257614 -21.650230 -4.733496
v 18.147253 14.260868 -3.337427
v 20.830435 25.782310 -1.963770
v 19.490704 -11.528420 -6.535148
v 19.300110 20.304829 -2.133173
v 19.884708 20.745810 -2.744074
v 19.618279 20.272938 -2.541620
v 19.884708 19.917692 -2.927866
v 20.524403 26.465033 -0.571192
v 23.301270 -18.243248 0.093179
v 21.537020 -23.038033 0.093179
v 21.495842 25.451405 0.093176
v 21.495842 24.143198 0.093176
v 20.657591 20.745810 0.093176
v 20.050400 20.304829 0.093176
v 20.380861 20.272938 0.093176
v 20.657591 19.917690 0.093176
v 19.185211 14.260868 0.098609
v 21.832609 -11.959045 0.093179
v 19.106800 -2.594487 -5.987938
v 19.188845 -2.685349 0.093178
v 9.160944 13.795601 -3.108453
v 9.464125 -2.938458 -7.890800
v 13.568110 -17.310638 -8.101401
v 12.111685 -22.639626 -5.059713
v 12.111685 -24.326820 0.093179
v 12.498363 -10.765271 -8.531302
v 10.410715 18.445826 -2.478662
v 10.410719 18.867517 -3.193979
v 13.627726 23.157955 -2.783335
v 10.410715 18.406898 -2.925791
v 10.410719 18.064013 -3.389856
v 11.940403 22.957495 0.093176
v 11.940403 23.976109 -0.957239
v 20.705925 -17.516426 6.402704
v 18.257614 -21.650230 4.919824
v 18.147253 14.260868 2.943289
v 20.830435 25.782310 2.150121
v 19.490704 -11.528419 6.721505
v 19.300110 20.304829 2.319510
v 19.884708 20.745810 2.930426
v 19.618279 20.272938 2.727972
v 19.884708 19.917692 3.114203
v 20.524403 26.465033 0.757543
v 17.905008 -2.594486 6.174278
v 9.160944 13.795601 3.293860
v 9.464125 -2.938457 8.077156
v 13.568110 -17.310638 8.287744
v 12.111685 -22.639626 6.333902
v 12.498363 -10.765269 8.717629
v 10.410715 18.445826 2.665030
v 10.410719 18.867517 3.380331
v 11.940403 23.157955 2.969687
v 10.410715 18.406898 3.112128
v 10.410719 18.064013 3.576208
v 11.940403 23.976109 1.143591
v -0.116297 8.213696 4.397590
v 9.144484 8.213696 4.397590
v 17.721373 8.608833 3.997931
v 18.649031 8.608837 0.093177
v 18.272221 8.608833 -4.130074
v 9.144484 8.213696 -4.211251
v -0.116297 8.213696 -4.211251
v -20.938517 -17.516426 -6.216361
v -18.490206 -21.650230 -4.733496
v -18.379847 14.260868 -3.337427
v -21.063025 25.782310 -1.963770
v -19.723295 -11.528420 -6.535148
v -19.532701 20.304829 -2.133173
v -20.117300 20.745810 -2.744074
v -19.850866 20.272938 -2.541620
v -20.117300 19.917692 -2.927866
v -20.756994 26.465033 -0.571192
v -23.533861 -18.243248 0.093179
v -21.769617 -23.038033 0.093179
v -21.728434 25.451405 0.093176
v -21.728434 24.143198 0.093176
v -20.890184 20.745810 0.093176
v -20.282991 20.304829 0.093176
v -20.613455 20.272938 0.093176
v -20.890184 19.917690 0.093176
v -19.417803 14.260868 0.098609
v -22.065203 -11.959045 0.093179
v -19.339396 -2.594487 -5.987938
v -19.421438 -2.685349 0.093178
v -9.393534 13.795601 -3.108453
v -9.696718 -2.938458 -7.890800
v -13.800703 -17.310638 -8.101401
v -12.344278 -22.639626 -5.059713
v -12.344278 -24.326820 0.093179
v -12.730955 -10.765271 -8.531302
v -10.643309 18.445826 -2.478662
v -10.643312 18.867517 -3.193979
v -13.860319 23.157955 -2.783335
v -10.643309 18.406898 -2.925791
v -10.643312 18.064013 -3.389856
v -12.172991 22.957495 0.093176
v -12.172991 23.976109 -0.957239
v -20.938517 -17.516426 6.402704
v -20.406504 -21.650230 4.919824
v -18.379847 14.260868 2.943289
v -21.063025 25.782310 2.150121
v -19.723295 -11.528419 6.721505
v -19.532701 20.304829 2.319510
v -20.117300 20.745810 2.930426
v -19.850866 20.272938 2.727972
v -20.117300 19.917692 3.114203
v -20.756994 26.465033 0.757543
v -18.137602 -2.594486 6.174278
v -9.393534 13.795601 3.293860
v -9.696718 -2.938457 8.077156
v -13.800703 -17.310638 8.287744
v -12.344278 -22.639626 6.333902
v -12.730955 -10.765269 8.717629
v -10.643309 18.445826 2.665030
v -10.643312 18.867517 3.380331
v -12.172991 23.157955 2.969687
v -10.643309 18.406898 3.112128
v -10.643312 18.064013 3.576208
v -12.172991 23.976109 1.143591
v -9.377077 8.213696 4.397590
v -17.953966 8.608833 3.997931
v -18.881624 8.608837 0.093177
v -18.504816 8.608833 -4.130074
v -9.377077 8.213696 -4.211251
v -0.116297 21.811813 -2.918619
v 11.403559 21.967512 -2.924692
v 20.498531 24.330038 -2.222193
v 21.201660 22.690924 0.093176
v 20.498531 24.330038 2.408544
v 11.403559 21.967512 3.111029
v -0.116297 21.811813 3.104971
v -11.636152 21.967512 3.111029
v -20.731127 24.330038 2.408544
v -21.434252 22.690924 0.093176
v -20.731127 24.330038 -2.222193
v -11.636152 21.967512 -2.924692
vn 0.5722 -0.8201 -0.0000
vn 0.3357 -0.7156 -0.6125
vn 0.6637 -0.1321 -0.7362
vn 0.9941 -0.1080 -0.0000
vn 0.9982 -0.0598 -0.0000
vn 0.0368 0.6880 -0.7248
vn -0.1798 0.9692 0.1684
vn 0.2436 0.9699 0.0001
vn 0.9492 -0.3147 -0.0000
vn 0.2252 -0.0422 -0.9734
vn 0.3014 0.0408 -0.9526
vn 0.9847 -0.1740 -0.0000
vn 0.8420 -0.5395 -0.0001
vn 0.3060 -0.5616 -0.7688
vn 0.0130 0.8773 -0.4797
vn 0.5496 0.8354 -0.0000
vn 0.9768 -0.2142 -0.0002
vn 0.4643 -0.0298 -0.8852
vn 0.3319 0.0325 -0.9428
vn 0.9880 -0.1530 0.0202
vn 0.9967 0.0330 0.0739
vn 0.4803 0.2036 -0.8532
vn 0.6562 0.1305 -0.7432
vn 0.9788 0.2032 0.0246
vn 0.5827 0.2033 -0.7868
vn 0.9888 0.1335 0.0666
vn 0.0585 -0.7546 -0.6535
vn 0.0898 -0.2508 -0.9639
vn 0.1073 0.0327 -0.9937
vn -0.0024 0.0849 -0.9964
vn 0.0289 0.2485 -0.9682
vn 0.0159 0.1075 -0.9941
vn 0.0317 -0.1203 -0.9922
vn 0.0539 -0.4710 -0.8805
vn 0.0008 0.0686 -0.9976
vn -0.0739 0.9006 -0.4282
vn -0.0827 0.6652 -0.7420
vn -0.0921 0.9950 0.0397
vn 0.0698 -0.9976 0.0003
vn -0.1178 0.9930 -0.0000
vn 0.0609 0.1997 -0.9780
vn -0.0000 -1.0000 -0.0000
vn -0.0000 -0.7561 -0.6544
vn -0.0000 -0.2755 -0.9613
vn -0.0000 0.0084 -1.0000
vn -0.0000 0.2127 -0.9771
vn -0.0000 0.2752 -0.9614
vn -0.0000 0.0789 -0.9969
vn -0.0000 0.0457 -0.9990
vn -0.0000 0.9223 -0.3865
vn -0.0000 -0.5032 -0.8642
vn -0.0000 -0.1192 -0.9929
vn -0.0000 0.1005 -0.9949
vn -0.0000 0.9991 0.0434
vn -0.0000 0.7084 -0.7058
vn -0.0000 1.0000 -0.0000
vn 0.6730 -0.1155 0.7306
vn 0.3650 -0.7216 0.5883
vn -0.1720 0.9601 -0.2206
vn 0.0405 0.6972 0.7157
vn 0.2713 0.0627 0.9605
vn 0.2252 -0.0422 0.9734
vn 0.3060 -0.5616 0.7688
vn 0.0130 0.8774 0.4796
vn 0.4359 -0.0680 0.8974
vn 0.3535 -0.0043 0.9354
vn 0.4811 0.1926 0.8552
vn 0.6655 0.1559 0.7300
vn 0.5646 0.2151 0.7969
vn 0.1023 -0.1896 0.9765
vn 0.0721 -0.7418 0.6667
vn 0.1097 0.0371 0.9933
vn 0.0186 0.0773 0.9968
vn 0.0433 0.2556 0.9658
vn 0.0188 0.1079 0.9940
vn 0.0317 -0.1203 0.9922
vn 0.0539 -0.4710 0.8805
vn -0.0739 0.9006 0.4282
vn 0.0242 0.0276 0.9993
vn -0.1230 0.9868 -0.1054
vn -0.0523 0.6734 0.7374
vn 0.0678 0.2051 0.9764
vn -0.0000 -0.7547 0.6560
vn -0.0000 -0.1933 0.9811
vn -0.0000 0.0081 1.0000
vn -0.0000 0.2127 0.9771
vn -0.0000 0.0788 0.9969
vn -0.0000 0.2753 0.9614
vn -0.0000 0.0455 0.9990
vn -0.0000 0.9223 0.3864
vn -0.0000 -0.5032 0.8642
vn 0.0001 -0.1192 0.9929
vn -0.0000 0.0996 0.9950
vn -0.0000 0.9975 -0.0709
vn -0.0000 0.7088 0.7054
vn -0.5368 -0.8432 -0.0288
vn -0.9973 -0.0578 -0.0443
vn -0.6637 -0.1321 -0.7362
vn -0.3357 -0.7156 -0.6125
vn -0.9982 -0.0598 -0.0000
vn -0.2436 0.9699 -0.0000
vn 0.1798 0.9692 0.1685
vn -0.0368 0.6880 -0.7248
vn -0.9492 -0.3147 -0.0000
vn -0.9847 -0.1740 -0.0000
vn -0.3014 0.0407 -0.9526
vn -0.2252 -0.0422 -0.9734
vn -0.8420 -0.5395 0.0001
vn -0.3060 -0.5616 -0.7688
vn -0.0130 0.8774 -0.4796
vn -0.5496 0.8354 -0.0000
vn -0.9768 -0.2142 -0.0001
vn -0.4643 -0.0298 -0.8852
vn -0.3319 0.0325 -0.9428
vn -0.9880 -0.1530 0.0202
vn -0.9967 0.0330 0.0739
vn -0.4803 0.2037 -0.8531
vn -0.9788 0.2032 0.0246
vn -0.6562 0.1305 -0.7432
vn -0.9888 0.1335 0.0666
vn -0.5827 0.2033 -0.7868
vn -0.0898 -0.2508 -0.9639
vn -0.0585 -0.7546 -0.6535
vn -0.1073 0.0327 -0.9937
vn 0.0024 0.0849 -0.9964
vn -0.0289 0.2485 -0.9682
vn -0.0159 0.1075 -0.9941
vn -0.0317 -0.1203 -0.9922
vn -0.0539 -0.4710 -0.8805
vn 0.0739 0.9006 -0.4282
vn -0.0008 0.0686 -0.9976
vn 0.0920 0.9950 0.0397
vn 0.0827 0.6652 -0.7420
vn -0.0680 -0.9977 0.0019
vn 0.1178 0.9930 -0.0000
vn -0.0609 0.1997 -0.9780
vn -0.4159 -0.7046 0.5750
vn -0.6456 -0.0904 0.7583
vn -0.0405 0.6972 0.7157
vn 0.1720 0.9601 -0.2206
vn -0.2252 -0.0422 0.9734
vn -0.2713 0.0627 0.9605
vn -0.3060 -0.5616 0.7687
vn -0.0130 0.8774 0.4797
vn -0.4359 -0.0680 0.8974
vn -0.3535 -0.0042 0.9354
vn -0.4811 0.1927 0.8552
vn -0.6655 0.1559 0.7300
vn -0.5646 0.2151 0.7969
vn -0.0705 -0.7444 0.6640
vn -0.1000 -0.1857 0.9775
vn -0.1097 0.0371 0.9933
vn -0.0186 0.0773 0.9968
vn -0.0433 0.2556 0.9658
vn -0.0188 0.1079 0.9940
vn -0.0317 -0.1203 0.9922
vn -0.0539 -0.4710 0.8805
vn -0.0241 0.0276 0.9993
vn 0.0739 0.9006 0.4282
vn 0.0523 0.6734 0.7374
vn 0.1230 0.9868 -0.1054
vn -0.0678 0.2051 0.9764
vt 0.457774 0.522391
vt 0.504509 0.544821
vt 0.456310 0.598278
vt 0.423871 0.549932
vt 0.911388 0.959688
vt 0.885650 0.968344
vt 0.884304 0.950437
vt 0.898071 0.953345
vt 0.946210 0.968942
vt 0.934028 0.996820
vt 0.898858 0.979592
vt 0.926091 0.964781
vt 0.953125 0.970223
vt 0.943918 0.995034
vt 0.946836 0.999271
vt 0.956032 0.971126
vt 0.960118 0.972578
vt 0.950659 1.003863
vt 0.093454 0.607692
vt 0.035747 0.612426
vt 0.028335 0.582484
vt 0.086358 0.570912
vt 0.145402 0.570132
vt 0.150907 0.614254
vt 0.384086 0.633160
vt 0.365381 0.570699
vt 0.276294 0.637457
vt 0.264746 0.577706
vt 0.978170 0.397014
vt 0.955992 0.442308
vt 0.894298 0.453216
vt 0.906443 0.392657
vt 0.967255 0.336418
vt 0.895879 0.328897
vt 0.864495 0.081127
vt 0.953128 0.077306
vt 0.954414 0.133685
vt 0.864354 0.137024
vt 0.841812 0.855408
vt 0.856175 0.948474
vt 0.821247 0.939104
vt 0.811553 0.843739
vt 0.813502 0.933648
vt 0.803284 0.843870
vt 0.804196 0.939428
vt 0.793049 0.843838
vt 0.798804 0.843972
vt 0.809564 0.937020
vt 0.877039 0.039154
vt 0.970693 0.021636
vt 0.869636 0.953267
vt 0.852157 0.879094
vt 0.873276 0.862740
vt 0.500197 0.451186
vt 0.546312 0.471130
vt 0.887900 0.860732
vt 0.963055 0.246411
vt 0.866380 0.252289
vt 0.512004 0.329733
vt 0.567410 0.329727
vt 0.772681 0.457815
vt 0.772673 0.394363
vt 0.772664 0.329342
vt 0.772655 0.251961
vt 0.772640 0.136796
vt 0.772633 0.080861
vt 0.772628 0.038760
vt 0.795701 0.740102
vt 0.801469 0.740115
vt 0.805961 0.740124
vt 0.814299 0.740151
vt 0.844192 0.740203
vt 0.875089 0.740224
vt 0.855423 0.740217
vt 0.889649 0.740224
vt 0.390900 0.504272
vt 0.429535 0.484486
vt 0.904378 0.939588
vt 0.915323 0.940394
vt 0.925736 0.940119
vt 0.956738 0.941997
vt 0.963956 0.940228
vt 0.968131 0.942127
vt 0.973649 0.943154
vt 0.082345 0.537585
vt 0.024049 0.551827
vt 0.141315 0.527549
vt 0.338563 0.508526
vt 0.253645 0.513751
vt 0.381993 0.445765
vt 0.437142 0.434826
vt 0.320041 0.443711
vt 0.077445 0.436281
vt 0.132084 0.433080
vt 0.936401 0.855488
vt 0.966800 0.844486
vt 0.974978 0.844663
vt 0.979409 0.844766
vt 0.985141 0.844583
vt 0.036762 0.451715
vt 0.903330 0.861638
vt 0.924445 0.861193
vt 0.245093 0.424915
vt 0.447563 0.329701
vt 0.384030 0.329661
vt 0.317235 0.329665
vt 0.240288 0.329713
vt 0.073043 0.329948
vt 0.128868 0.329860
vt 0.030479 0.330018
vt 0.977811 0.740086
vt 0.983576 0.740069
vt 0.973326 0.740099
vt 0.965012 0.740120
vt 0.935309 0.740185
vt 0.904232 0.740220
vt 0.924171 0.740200
vt 0.457356 0.136086
vt 0.423447 0.108001
vt 0.456059 0.060145
vt 0.504376 0.114136
vt 0.911214 0.520737
vt 0.897928 0.527092
vt 0.884191 0.529992
vt 0.885503 0.512081
vt 0.945969 0.511417
vt 0.925884 0.515622
vt 0.898676 0.500829
vt 0.933768 0.483558
vt 0.952873 0.510114
vt 0.943648 0.485328
vt 0.946560 0.481087
vt 0.955775 0.509203
vt 0.959854 0.507738
vt 0.950377 0.476491
vt 0.092561 0.052144
vt 0.085609 0.088948
vt 0.027539 0.077595
vt 0.034836 0.047628
vt 0.144675 0.089501
vt 0.150003 0.045358
vt 0.364779 0.087926
vt 0.383405 0.025441
vt 0.264067 0.081442
vt 0.275383 0.021635
vt 0.567176 0.397066
vt 0.638902 0.392691
vt 0.651063 0.453247
vt 0.589366 0.442355
vt 0.578076 0.336467
vt 0.649450 0.328928
vt 0.680770 0.081150
vt 0.680927 0.137047
vt 0.590865 0.133731
vt 0.592137 0.077352
vt 0.856138 0.531921
vt 0.841794 0.624964
vt 0.811558 0.636569
vt 0.821263 0.541231
vt 0.813525 0.546670
vt 0.803292 0.636413
vt 0.804224 0.540869
vt 0.809590 0.543289
vt 0.798813 0.636296
vt 0.793059 0.636411
vt 0.668216 0.039180
vt 0.574558 0.021686
vt 0.873228 0.617670
vt 0.852127 0.601292
vt 0.869567 0.527146
vt 0.500554 0.208363
vt 0.546540 0.188287
vt 0.887839 0.619684
vt 0.582252 0.246459
vt 0.678929 0.252312
vt 0.426327 0.162370
vt 0.390170 0.154485
vt 0.915164 0.540033
vt 0.904232 0.540847
vt 0.956531 0.538322
vt 0.925566 0.540290
vt 0.963741 0.540057
vt 0.967913 0.538141
vt 0.973428 0.537087
vt 0.081718 0.122286
vt 0.023368 0.108264
vt 0.140739 0.132102
vt 0.338039 0.150429
vt 0.253145 0.145504
vt 0.437265 0.224521
vt 0.381560 0.213646
vt 0.319688 0.215557
vt 0.077143 0.223600
vt 0.131797 0.226614
vt 0.936307 0.624858
vt 0.966702 0.635750
vt 0.974878 0.635533
vt 0.985039 0.635559
vt 0.979307 0.635407
vt 0.036413 0.208309
vt 0.924354 0.619181
vt 0.903255 0.618767
vt 0.244828 0.234465
s 1
usemtl initialShadingGroup
f 36/1/1 26/2/2 25/3/3 35/4/4
f 38/5/5 28/6/6 34/7/7 37/8/8
f 39/9/9 31/10/10 153/11/11 154/12/12
f 40/13/13 30/14/14 31/10/10 39/9/9
f 32/15/15 30/14/14 40/13/13 41/16/16
f 42/17/17 33/18/18 32/15/15 41/16/16
f 27/19/19 33/20/18 42/21/17 43/22/20
f 85/23/21 86/24/22 27/19/19 43/22/20
f 25/3/3 29/25/23 44/26/24 35/4/4
f 44/26/24 29/25/23 45/27/25 46/28/26
f 25/29/3 26/30/2 50/31/27 49/32/28
f 29/33/23 25/29/3 49/32/28 52/34/29
f 47/35/30 27/36/19 86/37/22 87/38/31
f 152/39/32 153/40/11 31/41/10 54/42/33
f 30/43/14 53/44/34 54/42/33 31/41/10
f 33/45/18 57/46/35 56/47/36 32/48/15
f 57/49/35 33/50/18 27/36/19 47/35/30
f 32/48/15 56/47/36 53/44/34 30/43/14
f 34/7/7 28/51/6 55/52/37 59/53/38
f 51/54/39 50/55/27 26/2/2 36/1/1
f 34/7/7 59/53/38 58/56/40 37/8/8
f 45/57/25 29/33/23 52/34/29 48/58/41
f 50/55/27 51/54/39 1/59/42 2/60/43
f 49/32/28 50/31/27 2/61/43 3/62/44
f 4/63/45 52/34/29 49/32/28 3/62/44
f 48/58/41 52/34/29 4/63/45 5/64/46
f 47/35/30 87/38/31 88/65/47 6/66/48
f 7/67/49 57/49/35 47/35/30 6/66/48
f 56/47/36 57/46/35 7/68/49 8/69/50
f 53/44/34 56/47/36 8/69/50 9/70/51
f 10/71/52 54/42/33 53/44/34 9/70/51
f 151/72/53 152/39/32 54/42/33 10/71/52
f 12/73/54 59/53/38 55/52/37 11/74/55
f 58/56/40 59/53/38 12/73/54 13/75/56
f 36/1/1 35/4/4 60/76/57 61/77/58
f 38/5/5 37/8/8 69/78/59 63/79/60
f 39/9/9 154/12/12 155/80/61 66/81/62
f 40/13/13 39/9/9 66/81/62 65/82/63
f 67/83/64 41/16/16 40/13/13 65/82/63
f 42/17/17 41/16/16 67/83/64 68/84/65
f 62/85/66 43/22/20 42/21/17 68/86/65
f 84/87/67 85/23/21 43/22/20 62/85/66
f 60/76/57 35/4/4 44/26/24 64/88/68
f 44/26/24 46/28/26 70/89/69 64/88/68
f 60/76/57 73/90/70 74/91/71 61/77/58
f 64/88/68 75/92/72 73/90/70 60/76/57
f 71/93/73 83/94/74 84/87/67 62/85/66
f 155/80/61 156/95/75 77/96/76 66/81/62
f 65/82/63 66/81/62 77/96/76 76/97/77
f 68/84/65 67/83/64 79/98/78 80/99/79
f 80/100/79 71/93/73 62/85/66 68/86/65
f 67/83/64 65/82/63 76/97/77 79/98/78
f 69/78/59 81/101/80 78/102/81 63/79/60
f 51/54/39 36/1/1 61/77/58 74/91/71
f 69/78/59 37/8/8 58/56/40 81/101/80
f 70/89/69 72/103/82 75/92/72 64/88/68
f 74/91/71 14/104/83 1/59/42 51/54/39
f 73/90/70 15/105/84 14/104/83 74/91/71
f 16/106/85 15/105/84 73/90/70 75/92/72
f 72/103/82 17/107/86 16/106/85 75/92/72
f 71/93/73 18/108/87 82/109/88 83/94/74
f 19/110/89 18/108/87 71/93/73 80/100/79
f 79/98/78 20/111/90 19/112/89 80/99/79
f 76/97/77 21/113/91 20/111/90 79/98/78
f 22/114/92 21/113/91 76/97/77 77/96/76
f 156/95/75 157/115/93 22/114/92 77/96/76
f 24/116/94 23/117/95 78/102/81 81/101/80
f 58/56/40 13/75/56 24/116/94 81/101/80
f 83/94/74 82/109/88 17/107/86 72/103/82
f 84/87/67 83/94/74 72/103/82 70/89/69
f 70/89/69 46/28/26 85/23/21 84/87/67
f 45/27/25 86/24/22 85/23/21 46/28/26
f 87/38/31 86/37/22 45/57/25 48/58/41
f 88/65/47 87/38/31 48/58/41 5/64/46
f 100/118/96 99/119/97 89/120/98 90/121/99
f 102/122/100 101/123/101 98/124/102 92/125/103
f 103/126/104 160/127/105 161/128/106 95/129/107
f 104/130/108 103/126/104 95/129/107 94/131/109
f 96/132/110 105/133/111 104/130/108 94/131/109
f 106/134/112 105/133/111 96/132/110 97/135/113
f 91/136/114 107/137/115 106/138/112 97/139/113
f 148/140/116 107/137/115 91/136/114 149/141/117
f 89/120/98 99/119/97 108/142/118 93/143/119
f 108/142/118 110/144/120 109/145/121 93/143/119
f 89/146/98 113/147/122 114/148/123 90/149/99
f 93/150/119 116/151/124 113/147/122 89/146/98
f 111/152/125 150/153/126 149/154/117 91/155/114
f 161/156/106 162/157/127 118/158/128 95/159/107
f 94/160/109 95/159/107 118/158/128 117/161/129
f 97/162/113 96/163/110 120/164/130 121/165/131
f 121/166/131 111/152/125 91/155/114 97/167/113
f 96/163/110 94/160/109 117/161/129 120/164/130
f 98/124/102 123/168/132 119/169/133 92/170/103
f 115/171/134 100/118/96 90/121/99 114/172/123
f 98/124/102 101/123/101 122/173/135 123/168/132
f 109/174/121 112/175/136 116/151/124 93/150/119
f 114/172/123 2/60/43 1/59/42 115/171/134
f 113/147/122 3/62/44 2/61/43 114/148/123
f 4/63/45 3/62/44 113/147/122 116/151/124
f 112/175/136 5/64/46 4/63/45 116/151/124
f 111/152/125 6/66/48 88/65/47 150/153/126
f 7/67/49 6/66/48 111/152/125 121/166/131
f 120/164/130 8/69/50 7/68/49 121/165/131
f 117/161/129 9/70/51 8/69/50 120/164/130
f 10/71/52 9/70/51 117/161/129 118/158/128
f 162/157/127 151/72/53 10/71/52 118/158/128
f 12/73/54 11/74/55 119/169/133 123/168/132
f 122/173/135 13/75/56 12/73/54 123/168/132
f 100/118/96 125/176/137 124/177/138 99/119/97
f 102/122/100 127/178/139 133/179/140 101/123/101
f 103/126/104 130/180/141 159/181/142 160/127/105
f 104/130/108 129/182/143 130/180/141 103/126/104
f 131/183/144 129/182/143 104/130/108 105/133/111
f 106/134/112 132/184/145 131/183/144 105/133/111
f 126/185/146 132/186/145 106/138/112 107/137/115
f 147/187/147 126/185/146 107/137/115 148/140/116
f 124/177/138 128/188/148 108/142/118 99/119/97
f 108/142/118 128/188/148 134/189/149 110/144/120
f 124/177/138 125/176/137 138/190/150 137/191/151
f 128/188/148 124/177/138 137/191/151 139/192/152
f 135/193/153 126/185/146 147/187/147 146/194/154
f 158/195/155 159/181/142 130/180/141 141/196/156
f 129/182/143 140/197/157 141/196/156 130/180/141
f 132/184/145 144/198/158 143/199/159 131/183/144
f 144/200/158 132/186/145 126/185/146 135/193/153
f 131/183/144 143/199/159 140/197/157 129/182/143
f 133/179/140 127/178/139 142/201/160 145/202/161
f 115/171/134 138/190/150 125/176/137 100/118/96
f 133/179/140 145/202/161 122/173/135 101/123/101
f 134/189/149 128/188/148 139/192/152 136/203/162
f 138/190/150 115/171/134 1/59/42 14/104/83
f 137/191/151 138/190/150 14/104/83 15/105/84
f 16/106/85 139/192/152 137/191/151 15/105/84
f 136/203/162 139/192/152 16/106/85 17/107/86
f 135/193/153 146/194/154 82/109/88 18/108/87
f 19/110/89 144/200/158 135/193/153 18/108/87
f 143/199/159 144/198/158 19/112/89 20/111/90
f 140/197/157 143/199/159 20/111/90 21/113/91
f 22/114/92 141/196/156 140/197/157 21/113/91
f 157/115/93 158/195/155 141/196/156 22/114/92
f 24/116/94 145/202/161 142/201/160 23/117/95
f 122/173/135 145/202/161 24/116/94 13/75/56
f 146/194/154 136/203/162 17/107/86 82/109/88
f 147/187/147 134/189/149 136/203/162 146/194/154
f 134/189/149 147/187/147 148/140/116 110/144/120
f 109/145/121 110/144/120 148/140/116 149/141/117
f 150/153/126 112/175/136 109/174/121 149/154/117
f 88/65/47 5/64/46 112/175/136 150/153/126
f 11/74/55 55/52/37 152/39/32 151/72/53
f 55/52/37 28/51/6 153/40/11 152/39/32
f 154/12/12 153/11/11 28/6/6 38/5/5
f 155/80/61 154/12/12 38/5/5 63/79/60
f 78/102/81 156/95/75 155/80/61 63/79/60
f 23/117/95 157/115/93 156/95/75 78/102/81
f 23/117/95 142/201/160 158/195/155 157/115/93
f 142/201/160 127/178/139 159/181/142 158/195/155
f 160/127/105 159/181/142 127/178/139 102/122/100
f 161/128/106 160/127/105 102/122/100 92/125/103
f 119/169/133 162/157/127 161/156/106 92/170/103
f 11/74/55 151/72/53 162/157/127 119/169/133
