# Blender 4.2.2 LTS
# www.blender.org
mtllib pink_slime_Fixed.mtl
o pink_slime
v -9.005463 20.931488 -10.811520
v -11.027817 15.212928 -14.086215
v -12.317520 4.533949 -13.416162
v -12.317520 4.533951 13.744322
v -11.027817 15.212945 14.422643
v -9.005463 20.931488 11.139675
v -4.479179 27.969181 0.164074
v -5.403676 27.400932 2.933170
v -5.403409 27.401176 -2.604633
v -17.917477 14.487638 9.074224
v -20.670040 13.792587 0.168210
v -17.380783 19.792057 0.164074
v -14.707447 20.163013 7.022870
v -14.707447 20.163013 -6.694705
v -17.917477 14.487636 -8.737811
v -21.078728 2.988898 0.164076
v -18.187031 3.759544 -7.191263
v -18.187031 3.759545 7.519430
v -16.929359 1.006804 -3.455537
v -17.188087 -0.382158 0.164076
v -11.464752 2.093145 -8.134928
v -10.426895 0.465651 0.164076
v -16.929359 1.006804 3.783697
v -11.464752 2.093147 8.463095
v -12.941742 9.624907 -15.465907
v -19.491543 8.664939 -9.528056
v -22.562111 7.852809 0.136999
v -19.491543 8.664941 9.802060
v -12.941742 9.624909 15.751912
v -13.710899 24.970215 0.164074
v -11.728622 25.075207 4.376720
v -7.162842 25.069725 6.600597
v -7.162709 25.070045 -6.272174
v -11.728611 25.075222 -4.048564
v -1.017601 21.286745 -12.848423
v -1.017601 15.681849 -16.519833
v -1.017601 3.531332 -15.026430
v -1.017601 3.531335 15.354597
v -1.017601 15.681851 16.856258
v -1.017601 21.286749 13.176586
v -1.017601 26.941902 4.125095
v -1.017601 27.768902 0.164074
v -1.017601 26.941902 -3.796940
v -1.017601 0.343634 -9.019777
v -1.017601 -1.141809 0.164076
v -1.017601 0.343650 9.347937
v -1.017601 9.280532 -17.736254
v -1.017601 9.280534 18.284224
v -1.017601 25.237095 8.122913
v -1.017601 25.237095 -7.794750
v 6.970265 20.931488 -10.811520
v 8.992616 15.212928 -14.086215
v 10.282315 4.533949 -13.416162
v 10.282315 4.533951 13.744322
v 8.992616 15.212945 14.422643
v 6.970265 20.931488 11.139675
v 2.443981 27.969181 0.164074
v 3.368477 27.400932 2.933170
v 3.368207 27.401176 -2.604633
v 15.882275 14.487638 9.074224
v 18.634838 13.792587 0.168210
v 15.345577 19.792057 0.164074
v 12.672241 20.163013 7.022870
v 12.672241 20.163013 -6.694705
v 15.882275 14.487636 -8.737811
v 19.043526 2.988898 0.164076
v 16.151829 3.759544 -7.191263
v 16.151829 3.759545 7.519430
v 14.894161 1.006804 -3.455537
v 15.152889 -0.382158 0.164076
v 9.429555 2.093145 -8.134928
v 8.391694 0.465651 0.164076
v 14.894161 1.006804 3.783697
v 9.429555 2.093147 8.463095
v 10.906549 9.624907 -15.465907
v 17.456341 8.664939 -9.528056
v 20.526909 7.852809 0.136999
v 17.456341 8.664941 9.802060
v 10.906549 9.624909 15.751912
v 11.675697 24.970215 0.164074
v 9.693418 25.075207 4.376728
v 5.127640 25.069725 6.600597
v 5.127499 25.070045 -6.272174
v 9.693418 25.075222 -4.048564
v -8.774693 28.283691 2.169002
v -7.127900 28.345745 2.185856
v -9.410519 28.997936 0.164074
v -7.812462 29.256016 0.164074
v -7.127980 28.345936 -1.857472
v -8.774681 28.283707 -1.840824
v 5.092701 28.345745 2.185856
v 6.739495 28.283691 2.169002
v 5.777260 29.256016 0.164074
v 7.375317 28.997936 0.164074
v 5.092778 28.345936 -1.857472
v 6.739483 28.283707 -1.840824
v -5.906838 26.734142 3.982136
v -1.017601 26.374878 5.454769
v 3.925057 26.663361 4.093487
vn -0.3398 0.6298 0.6985
vn -0.3865 0.4119 0.8252
vn -0.0000 0.3974 0.9176
vn -0.0000 0.6487 0.7611
vn -0.4202 -0.0517 0.9060
vn -0.0000 -0.0922 0.9957
vn -0.3841 0.4090 -0.8278
vn -0.3399 0.6294 -0.6988
vn -0.0000 0.6482 -0.7615
vn -0.0000 0.3904 -0.9206
vn 0.1357 0.9907 -0.0000
vn 0.0885 0.9348 0.3439
vn 0.0006 0.9494 0.3140
vn -0.0000 1.0000 -0.0000
vn -0.0419 0.8872 -0.4595
vn -0.0000 0.9232 -0.3843
vn -0.7702 0.4211 0.4791
vn -0.9177 0.3973 0.0005
vn -1.0000 0.0016 -0.0011
vn -0.8375 -0.0063 0.5464
vn -0.6690 0.5827 0.4614
vn -0.8357 0.5491 -0.0001
vn -0.6691 0.5824 -0.4616
vn -0.7699 0.4230 -0.4778
vn -0.8367 -0.0061 -0.5477
vn -0.8706 -0.4920 0.0008
vn -0.6529 -0.5827 -0.4839
vn -0.2476 -0.9118 -0.3275
vn -0.2131 -0.9770 -0.0000
vn -0.6540 -0.5805 0.4850
vn -0.2476 -0.9118 0.3275
vn -0.1699 -0.9325 -0.3188
vn -0.1120 -0.9937 -0.0000
vn -0.0000 -0.9573 -0.2892
vn -0.0000 -1.0000 -0.0000
vn -0.1699 -0.9325 0.3188
vn -0.0000 -0.9573 0.2892
vn -0.4143 -0.0497 -0.9088
vn -0.3097 -0.6423 -0.7011
vn -0.3127 -0.6438 0.6984
vn -0.4023 0.7858 0.4698
vn -0.1218 0.8344 0.5376
vn 0.2018 0.8837 0.4223
vn -0.0000 -0.6917 -0.7221
vn -0.0008 0.8935 0.4490
vn -0.0000 -0.0923 -0.9957
vn -0.5590 0.6859 0.4659
vn -0.7633 0.6461 -0.0000
vn -0.2510 0.7664 0.5913
vn -0.2348 0.7741 -0.5879
vn -0.0000 0.8175 -0.5759
vn -0.5471 0.6910 -0.4725
vn -0.0000 -0.6954 0.7186
vn -0.0002 0.8102 0.5862
vn 0.3398 0.6298 0.6985
vn 0.3865 0.4119 0.8252
vn 0.4202 -0.0514 0.9060
vn 0.3841 0.4090 -0.8278
vn 0.3399 0.6294 -0.6988
vn -0.1357 0.9907 -0.0000
vn -0.0864 0.9334 0.3483
vn 0.0419 0.8872 -0.4596
vn 0.7702 0.4211 0.4791
vn 0.8375 -0.0063 0.5464
vn 1.0000 0.0016 -0.0008
vn 0.9177 0.3973 0.0005
vn 0.8357 0.5491 -0.0001
vn 0.6690 0.5827 0.4614
vn 0.7699 0.4230 -0.4778
vn 0.6691 0.5824 -0.4616
vn 0.8367 -0.0061 -0.5477
vn 0.8706 -0.4920 0.0008
vn 0.2131 -0.9770 -0.0000
vn 0.2476 -0.9118 -0.3275
vn 0.6529 -0.5827 -0.4839
vn 0.6540 -0.5805 0.4850
vn 0.2476 -0.9118 0.3275
vn 0.1120 -0.9937 -0.0000
vn 0.1699 -0.9325 -0.3188
vn 0.1699 -0.9325 0.3188
vn 0.4143 -0.0497 -0.9088
vn 0.3097 -0.6423 -0.7011
vn 0.3127 -0.6438 0.6984
vn 0.1231 0.8341 0.5377
vn 0.4045 0.7855 0.4683
vn -0.1994 0.8827 0.4256
vn 0.5600 0.6853 0.4655
vn 0.7633 0.6461 -0.0000
vn 0.2521 0.7659 0.5915
vn 0.2348 0.7741 -0.5879
vn 0.5470 0.6910 -0.4725
vn -0.3464 0.7893 -0.5070
vn -0.0256 0.8324 -0.5536
vn 0.0256 0.8324 -0.5536
vn 0.3464 0.7893 -0.5070
vn 0.1666 0.9860 -0.0000
vn -0.5830 0.8125 -0.0000
vn 0.5830 0.8125 -0.0000
vn -0.1666 0.9860 -0.0000
vt 0.665726 0.436076
vt 0.742370 0.421323
vt 0.721247 0.572509
vt 0.646984 0.543717
vt 0.806417 0.394327
vt 0.798368 0.602481
vt 0.337319 0.264192
vt 0.383904 0.326785
vt 0.325350 0.418632
vt 0.250883 0.389867
vt 0.500206 0.446332
vt 0.537052 0.449620
vt 0.532895 0.500247
vt 0.486126 0.480885
vt 0.471585 0.422630
vt 0.439292 0.462540
vt 0.704064 0.296209
vt 0.595213 0.201114
vt 0.620324 0.134941
vt 0.760536 0.252649
vt 0.642067 0.342994
vt 0.567104 0.273038
vt 0.464327 0.273441
vt 0.450541 0.197474
vt 0.437594 0.127381
vt 0.640080 0.085821
vt 0.446617 0.064043
vt 0.525193 0.013145
vt 0.661405 0.031142
vt 0.797203 0.200506
vt 0.773852 0.109956
vt 0.922169 0.768379
vt 0.947684 0.769446
vt 0.981051 0.803736
vt 0.925025 0.813858
vt 0.989896 0.873420
vt 0.929007 0.877244
vt 0.896987 0.772631
vt 0.868174 0.810826
vt 0.868118 0.881069
vt 0.308446 0.201032
vt 0.270468 0.146290
vt 0.256799 0.064017
vt 0.871514 0.379873
vt 0.937229 0.328518
vt 0.539756 0.409581
vt 0.553083 0.447693
vt 0.532854 0.427175
vt 0.107480 0.334401
vt 0.035582 0.306614
vt 0.549401 0.506348
vt 0.173949 0.360113
vt 0.582457 0.380110
vt 0.541839 0.337696
vt 0.591633 0.442330
vt 0.434891 0.381241
vt 0.391456 0.444120
vt 0.482784 0.340501
vt 0.937001 0.656550
vt 0.865221 0.628531
vt 0.581114 0.518367
vt 0.588246 0.635765
vt 0.634880 0.698384
vt 0.663842 0.761551
vt 0.230045 0.540952
vt 0.306586 0.526036
vt 0.472330 0.516107
vt 0.500979 0.539948
vt 0.435561 0.513820
vt 0.522110 0.764899
vt 0.534306 0.835116
vt 0.351473 0.827225
vt 0.377604 0.761433
vt 0.405420 0.689449
vt 0.508077 0.688614
vt 0.268586 0.666371
vt 0.330164 0.619442
vt 0.211696 0.709497
vt 0.332911 0.876841
vt 0.311761 0.931625
vt 0.199230 0.853050
vt 0.175607 0.762448
vt 0.526113 0.898322
vt 0.447781 0.949350
vt 0.935845 0.986109
vt 0.932989 0.940631
vt 0.989840 0.943662
vt 0.961027 0.981858
vt 0.910329 0.985042
vt 0.876963 0.950753
vt 0.166106 0.568177
vt 0.035553 0.634746
vt 0.101118 0.583088
vt 0.702014 0.816198
vt 0.715677 0.898512
vt 0.513804 0.553001
vt 0.476048 0.570552
vt 0.482938 0.553189
vt 0.489430 0.621028
vt 0.430415 0.625027
vt 0.537261 0.581105
vt 0.380744 0.519706
vt 0.389497 0.582373
vt 0.495386 0.391125
vt 0.488825 0.408911
vt 0.438873 0.535713
vt 0.431928 0.553372
vt 0.513159 0.411857
vt 0.518957 0.396903
vt 0.452667 0.565503
vt 0.458464 0.550500
s 1
usemtl initialShadingGroup
f 6/1/1 5/2/2 39/3/3 40/4/4
f 29/5/5 48/6/6 39/3/3 5/2/2
f 2/7/7 1/8/8 35/9/9 36/10/10
f 7/11/11 8/12/12 41/13/13 42/14/14
f 9/15/15 7/11/11 42/14/14 43/16/16
f 10/17/17 11/18/18 27/19/19 28/20/20
f 11/18/18 10/17/17 13/21/21 12/22/22
f 12/22/22 14/23/23 15/24/24 11/18/18
f 11/18/18 15/24/24 26/25/25 27/19/19
f 16/26/26 17/27/27 19/28/28 20/29/29
f 18/30/30 16/26/26 20/29/29 23/31/31
f 20/32/29 19/33/28 21/34/32 22/35/33
f 22/35/33 21/34/32 44/36/34 45/37/35
f 23/38/31 20/32/29 22/35/33 24/39/36
f 24/39/36 22/35/33 45/37/35 46/40/37
f 10/17/17 5/2/2 6/1/1 13/21/21
f 14/23/23 1/8/8 2/7/7 15/24/24
f 15/24/24 2/7/7 25/41/38 26/25/25
f 5/2/2 10/17/17 28/20/20 29/5/5
f 17/27/27 3/42/39 21/43/32 19/28/28
f 4/44/40 18/30/30 23/31/31 24/45/36
f 85/46/41 97/47/42 8/12/12 86/48/43
f 21/43/32 3/42/39 37/49/44 44/50/34
f 8/12/12 97/47/42 98/51/45 41/13/13
f 3/42/39 25/41/38 47/52/46 37/49/44
f 26/25/25 25/41/38 3/42/39 17/27/27
f 27/19/19 26/25/25 17/27/27 16/26/26
f 28/20/20 27/19/19 16/26/26 18/30/30
f 29/5/5 28/20/20 18/30/30 4/44/40
f 31/53/47 30/54/48 12/22/22 13/21/21
f 13/21/21 6/1/1 32/55/49 31/53/47
f 1/8/8 33/56/50 50/57/51 35/9/9
f 34/58/52 33/56/50 1/8/8 14/23/23
f 30/54/48 34/58/52 14/23/23 12/22/22
f 36/10/10 47/52/46 25/41/38 2/7/7
f 46/59/37 38/60/53 4/44/40 24/45/36
f 43/16/16 50/57/51 33/56/50 9/15/15
f 38/60/53 48/6/6 29/5/5 4/44/40
f 40/4/4 49/61/54 32/55/49 6/1/1
f 56/62/55 40/4/4 39/3/3 55/63/56
f 79/64/57 55/63/56 39/3/3 48/6/6
f 52/65/58 36/10/10 35/9/9 51/66/59
f 57/67/60 42/14/14 41/13/13 58/68/61
f 59/69/62 43/16/16 42/14/14 57/67/60
f 60/70/63 78/71/64 77/72/65 61/73/66
f 61/73/66 62/74/67 63/75/68 60/70/63
f 62/74/67 61/73/66 65/76/69 64/77/70
f 61/73/66 77/72/65 76/78/71 65/76/69
f 66/79/72 70/80/73 69/81/74 67/82/75
f 68/83/76 73/84/77 70/80/73 66/79/72
f 70/85/73 72/86/78 71/87/79 69/88/74
f 72/86/78 45/37/35 44/36/34 71/87/79
f 73/89/77 74/90/80 72/86/78 70/85/73
f 74/90/80 46/40/37 45/37/35 72/86/78
f 60/70/63 63/75/68 56/62/55 55/63/56
f 64/77/70 65/76/69 52/65/58 51/66/59
f 65/76/69 76/78/71 75/91/81 52/65/58
f 55/63/56 79/64/57 78/71/64 60/70/63
f 67/82/75 69/81/74 71/92/79 53/93/82
f 54/94/83 74/95/80 73/84/77 68/83/76
f 99/96/84 92/97/85 91/98/86 58/68/61
f 71/92/79 44/50/34 37/49/44 53/93/82
f 58/68/61 41/13/13 98/51/45 99/96/84
f 53/93/82 37/49/44 47/52/46 75/91/81
f 76/78/71 67/82/75 53/93/82 75/91/81
f 77/72/65 66/79/72 67/82/75 76/78/71
f 78/71/64 68/83/76 66/79/72 77/72/65
f 79/64/57 54/94/83 68/83/76 78/71/64
f 81/99/87 63/75/68 62/74/67 80/100/88
f 63/75/68 81/99/87 82/101/89 56/62/55
f 51/66/59 35/9/9 50/57/51 83/102/90
f 84/103/91 64/77/70 51/66/59 83/102/90
f 80/100/88 62/74/67 64/77/70 84/103/91
f 36/10/10 52/65/58 75/91/81 47/52/46
f 46/59/37 74/95/80 54/94/83 38/60/53
f 43/16/16 59/69/62 83/102/90 50/57/51
f 38/60/53 54/94/83 79/64/57 48/6/6
f 40/4/4 56/62/55 82/101/89 49/61/54
f 90/104/92 89/105/93 9/15/15 33/56/50 34/58/52
f 95/106/94 96/107/95 84/103/91 83/102/90 59/69/62
f 85/46/41 86/48/43 88/108/96 87/109/97
f 87/109/97 88/108/96 89/105/93 90/104/92
f 91/98/86 92/97/85 94/110/98 93/111/99
f 93/111/99 94/110/98 96/107/95 95/106/94
f 85/46/41 87/109/97 30/54/48 31/53/47
f 88/108/96 86/48/43 8/12/12 7/11/11
f 87/109/97 90/104/92 34/58/52 30/54/48
f 89/105/93 88/108/96 7/11/11 9/15/15
f 94/110/98 92/97/85 81/99/87 80/100/88
f 93/111/99 57/67/60 58/68/61 91/98/86
f 94/110/98 80/100/88 84/103/91 96/107/95
f 93/111/99 95/106/94 59/69/62 57/67/60
f 31/53/47 32/55/49 97/47/42 85/46/41
f 98/51/45 97/47/42 32/55/49 49/61/54
f 99/96/84 98/51/45 49/61/54 82/101/89
f 81/99/87 92/97/85 99/96/84 82/101/89
